<svg width="169" height="87" viewBox="0 0 169 87" fill="none" xmlns="http://www.w3.org/2000/svg">
<path fill-rule="evenodd" clip-rule="evenodd" d="M15 0C6.71573 0 0 6.71573 0 15V72C0 80.2843 6.71573 87 15 87H154C162.284 87 169 80.2843 169 72V15C169 6.71573 162.284 0 154 0H15ZM105.553 41.2283C105.786 39.4871 107.361 37.365 109.078 37.6008V37.6099C119.583 39.0518 144 43.6859 144 55.5024C144 68.2983 114.071 75 84.5 75C54.9289 75 25 68.2983 25 55.5024C25 44.0849 48.7732 37.7459 73.2979 36.3312C73.3158 36.3312 73.3247 36.304 73.3247 36.304V33.8192C73.3247 33.8101 73.3158 33.792 73.2979 33.792C58.8479 31.4432 57.2195 25.7753 57.2195 23.3358C57.2195 15.5458 71.3653 12 84.5089 12C97.6526 12 111.798 15.5458 111.798 23.3358C111.798 25.7662 110.17 31.4432 95.72 33.792C95.7021 33.792 95.6932 33.8192 95.6932 33.8192V44.0577C95.6932 44.5112 95.7379 44.9737 95.8184 45.4271L96.1495 47.2771C96.1495 49.0727 94.2168 49.6984 92.4184 49.6168C90.8884 49.5443 88.7142 48.9911 88.9826 47.0594C89.4747 43.5045 89.6537 34.59 89.43 32.4226C89.43 30.8084 90.6111 28.9675 92.1947 28.777C99.63 27.8883 104.157 25.9929 105.741 24.5782C106.502 23.8981 106.466 22.7464 105.696 22.2204C103.433 20.6787 96.7758 17.4321 85.3947 17.4321C75.2126 17.4321 68.9137 20.3885 66.1132 22.0209C65.0037 22.6647 64.9768 24.3152 66.0953 24.9501C68.5021 26.3285 72.09 27.19 74.7742 27.589C76.6532 27.8702 78.1921 29.2395 78.72 31.0895C79.9348 35.359 79.7073 42.5843 79.5306 48.1939C79.4263 51.5088 79.3397 54.2594 79.5789 55.5024C79.91 57.2254 78.1742 57.7695 76.4474 57.7695C75.5884 57.7695 74.4521 57.6879 73.5395 57.3796C72.5284 57.044 71.8216 56.11 71.9289 55.6747C73.3708 50.0206 73.3226 43.6239 73.3162 42.7831C73.316 42.7474 73.3158 42.7217 73.3158 42.7065C73.3158 42.6884 73.2979 42.6884 73.2889 42.6884C46.1963 44.2754 34.8421 50.0068 34.8421 54.5955C34.8421 59.1843 47.7621 68.4706 82.7105 68.4706C117.659 68.4706 138.837 61.5602 138.632 54.5955C138.479 49.508 116.505 43.4864 106.627 45.1641C104.984 45.4431 105.293 43.1566 105.526 41.4324C105.535 41.3634 105.544 41.2953 105.553 41.2283Z" fill="#BB3D3D"/>
</svg>
