<svg width="345" height="53" viewBox="0 0 345 53" fill="none" xmlns="http://www.w3.org/2000/svg">
<path fill-rule="evenodd" clip-rule="evenodd" d="M0 9.05325C0 4.05328 4.05328 0 9.05326 0H92.9467C97.9467 0 102 4.05328 102 9.05326V43.4556C102 48.4556 97.9467 52.5089 92.9467 52.5089H9.05326C4.05328 52.5089 0 48.4556 0 43.4556V9.05325ZM65.8343 22.6941C64.7975 22.5518 63.8471 23.8326 63.7067 24.8835L63.6901 25.0067C63.5494 26.0473 63.3629 27.4273 64.3547 27.2589C70.3165 26.2463 83.5794 29.8807 83.6712 32.9513C83.7954 37.1548 71.0131 41.3255 49.92 41.3255C28.8269 41.3255 21.029 35.7208 21.029 32.9513C21.029 30.1817 27.8818 26.7225 44.2336 25.7647C44.239 25.7647 44.2498 25.7647 44.2498 25.7756L44.2501 25.8219V25.8219C44.2539 26.3296 44.2829 30.1902 43.4128 33.6026C43.348 33.8653 43.7746 34.4291 44.3848 34.6316C44.9356 34.8177 45.6214 34.8669 46.1399 34.8669C47.1821 34.8669 48.2297 34.5385 48.0299 33.4986C47.8855 32.7484 47.9378 31.0882 48.0008 29.0875C48.1074 25.7019 48.2447 21.341 47.5115 18.7642C47.1929 17.6476 46.2641 16.8212 45.13 16.6515C43.51 16.4107 41.3445 15.8907 39.8918 15.0587C39.2168 14.6756 39.233 13.6794 39.9026 13.2908C41.5929 12.3056 45.3946 10.5213 51.54 10.5213C58.4091 10.5213 62.4268 12.4808 63.7931 13.4112C64.2575 13.7287 64.2791 14.4238 63.8201 14.8343C62.8642 15.6882 60.1317 16.8321 55.6442 17.3685C54.6884 17.4834 53.9755 18.5945 53.9755 19.5688C54.1105 20.8769 54.0025 26.2573 53.7055 28.4029C53.5435 29.5687 54.8558 29.9026 55.7792 29.9464C56.8646 29.9956 58.0311 29.618 58.0311 28.5342L57.8313 27.4177C57.7827 27.144 57.7557 26.8648 57.7557 26.5912V20.4117C57.7557 20.4117 57.7611 20.3953 57.7719 20.3953C66.4932 18.9777 67.476 15.5513 67.476 14.0845C67.476 9.38282 58.9383 7.24272 51.0054 7.24272C43.0726 7.24272 34.5349 9.38282 34.5349 14.0845C34.5349 15.5568 35.5177 18.9777 44.239 20.3953C44.2498 20.3953 44.2552 20.4062 44.2552 20.4117V21.9114C44.2552 21.9114 44.2498 21.9278 44.239 21.9278C29.4371 22.7817 15.0888 26.6076 15.0888 33.4986C15.0888 41.2215 33.1524 45.2664 51 45.2664C68.8476 45.2664 86.9113 41.2215 86.9113 33.4986C86.9113 26.3668 72.1742 23.5699 65.8343 22.6996V22.6941ZM330.492 17.4353V22.0883C330.518 22.0552 330.547 22.0174 330.58 21.9753C331.638 20.6121 336.194 14.7379 344.625 18.3028L344.388 28.3817C333.41 23.0347 330.492 33.5079 330.492 39.7066V49.8013H319.073V35.5426H295.445C295.445 40.4637 297.763 42.9243 302.385 42.9243C304.861 42.9243 306.738 41.9148 308 39.8959H319.041C316.817 47.2934 311.233 51 302.322 51C299.593 51 297.085 50.5899 294.814 49.7697C292.543 48.9495 290.603 47.7823 288.978 46.2681C287.353 44.7539 286.107 42.9401 285.224 40.8423C284.909 40.0694 284.672 39.265 284.467 38.4448L284.372 49.8013H272.89V46.205C270.445 49.2808 267.148 50.8107 262.984 50.8107C260.634 50.8107 258.457 50.3691 256.486 49.4858C254.514 48.6025 252.779 47.388 251.312 45.8265C249.845 44.265 248.694 42.4353 247.874 40.3375C247.653 39.7382 247.464 39.123 247.29 38.5079L247.196 49.8013H235.713V46.205C233.268 49.2808 229.972 50.8107 225.808 50.8107C223.457 50.8107 221.281 50.3691 219.309 49.4858C217.338 48.6025 215.603 47.388 214.136 45.8265C212.669 44.265 211.517 42.4353 210.697 40.3375C210.413 39.5962 210.192 38.8391 210.003 38.0505V49.8013H198.521V46.205C196.076 49.2808 192.779 50.8107 188.615 50.8107C186.265 50.8107 184.088 50.3849 182.117 49.5173C180.145 48.6498 178.41 47.4511 176.943 45.8896C175.476 44.3281 174.325 42.4984 173.505 40.4006C173.189 39.5962 172.953 38.7603 172.763 37.9085V49.8013H161.344V33.8391C161.344 32.1987 161.233 30.858 160.997 29.8013C160.76 28.7445 160.429 27.9243 159.987 27.3407C159.546 26.7571 159.025 26.347 158.442 26.142C157.858 25.9369 157.227 25.8265 156.549 25.8265C152.89 25.8265 151.06 28.4921 151.06 33.8391V49.8013H139.64V33.8391C139.64 32.1987 139.53 30.8423 139.325 29.7697C139.12 28.6972 138.804 27.8454 138.41 27.2145C138.016 26.5836 137.495 26.1577 136.864 25.9211C136.233 25.6845 135.492 25.5741 134.656 25.5741C133.946 25.5741 133.268 25.6845 132.637 25.8896C132.006 26.0946 131.454 26.5047 130.965 27.1199C130.476 27.735 130.098 28.571 129.83 29.6435C129.562 30.7161 129.42 32.1199 129.42 33.8391V49.8013H118V17.4353H129.42V21.4101C132.527 18.429 136.028 16.9306 139.893 16.9306C144.688 16.9306 148.347 18.9495 150.871 22.9874C153.442 18.9022 157.101 16.8675 161.849 16.8675C163.363 16.8675 164.798 17.0883 166.139 17.53C167.479 17.9716 168.647 18.6656 169.609 19.612C170.571 20.5584 171.344 21.7886 171.912 23.3028C172.479 24.817 172.763 26.6467 172.763 28.7918V29.3123C172.953 28.5079 173.173 27.7035 173.473 26.9306C174.278 24.8486 175.382 23.0347 176.817 21.4732C178.252 19.9117 179.956 18.6814 181.927 17.7823C183.899 16.8833 186.091 16.4259 188.489 16.4259C192.527 16.4259 195.871 17.8297 198.521 20.653V17.4353H210.003V29.0599C210.177 28.3344 210.382 27.6246 210.634 26.9306C211.407 24.8486 212.511 23.0347 213.946 21.4732C215.382 19.9117 217.085 18.6814 219.088 17.7823C221.091 16.8833 223.284 16.4259 225.681 16.4259C229.719 16.4259 233.063 17.8297 235.713 20.653L236.091 1H247.574L247.369 28.3186C247.495 27.8454 247.637 27.388 247.811 26.9306C248.584 24.8486 249.688 23.0347 251.123 21.4732C252.558 19.9117 254.262 18.6814 256.265 17.7823C258.268 16.8833 260.461 16.4259 262.858 16.4259C266.896 16.4259 270.24 17.8297 272.89 20.653L273.268 1H284.751L284.53 28.4921C284.719 27.7981 284.909 27.1356 285.161 26.489C285.997 24.3281 287.196 22.4826 288.757 20.9685C290.319 19.4543 292.196 18.2871 294.404 17.4669C296.612 16.6467 299.151 16.2366 301.88 16.2366C304.609 16.2366 307.069 16.6467 309.262 17.4669C311.454 18.2871 313.3 19.47 314.814 21.0315C316.328 22.5931 317.479 24.4858 318.284 26.7413C318.631 27.6877 318.883 28.7129 319.073 29.7697V17.4353H330.492ZM196.722 38.8233C197.369 38.1451 197.905 37.3722 198.3 36.489C198.694 35.6057 198.899 34.6593 198.899 33.6498C198.899 32.6404 198.694 31.6782 198.3 30.7792C197.905 29.8801 197.369 29.0915 196.722 28.4132C196.076 27.735 195.287 27.2145 194.388 26.836C193.489 26.4574 192.574 26.2681 191.517 26.2681C190.461 26.2681 189.483 26.4574 188.584 26.836C187.685 27.2145 186.896 27.735 186.249 28.4132C185.603 29.0915 185.082 29.8486 184.703 30.7161C184.325 31.5836 184.136 32.4669 184.136 33.5237C184.136 34.5804 184.325 35.5584 184.703 36.4574C185.082 37.3565 185.603 38.1451 186.249 38.8233C186.896 39.5016 187.685 40.0221 188.584 40.4006C189.483 40.7792 190.508 40.9685 191.517 40.9685C192.527 40.9685 193.489 40.7792 194.388 40.4006C195.287 40.0221 196.076 39.5016 196.722 38.8233ZM233.915 38.8233C234.562 38.1451 235.098 37.3722 235.492 36.489C235.886 35.6057 236.091 34.6593 236.091 33.6498C236.091 32.6404 235.886 31.6782 235.492 30.7792C235.098 29.8801 234.562 29.0915 233.915 28.4132C233.268 27.735 232.479 27.2145 231.58 26.836C230.681 26.4574 229.719 26.2681 228.71 26.2681C227.7 26.2681 226.738 26.4574 225.839 26.836C224.94 27.2145 224.151 27.735 223.505 28.4132C222.858 29.0915 222.322 29.8486 221.927 30.7161C221.533 31.5836 221.328 32.4669 221.328 33.5237C221.328 34.5804 221.517 35.5584 221.896 36.4574C222.274 37.3565 222.795 38.1451 223.442 38.8233C224.088 39.5016 224.877 40.0221 225.776 40.4006C226.675 40.7792 227.7 40.9685 228.71 40.9685C229.719 40.9685 230.681 40.7792 231.58 40.4006C232.479 40.0221 233.268 39.5016 233.915 38.8233ZM271.091 38.8233C271.738 38.1451 272.274 37.3722 272.669 36.489C273.063 35.6057 273.268 34.6593 273.268 33.6498C273.268 32.6404 273.063 31.6782 272.669 30.7792C272.274 29.8801 271.738 29.0915 271.091 28.4132C270.445 27.735 269.656 27.2145 268.757 26.836C267.858 26.4574 266.896 26.2681 265.886 26.2681C264.877 26.2681 263.915 26.4574 263.016 26.836C262.117 27.2145 261.328 27.735 260.681 28.4132C260.035 29.0915 259.498 29.8486 259.104 30.7161C258.71 31.5836 258.505 32.4669 258.505 33.5237C258.505 34.5804 258.694 35.5584 259.073 36.4574C259.451 37.3565 259.972 38.1451 260.618 38.8233C261.265 39.5016 262.054 40.0221 262.953 40.4006C263.852 40.7792 264.877 40.9685 265.886 40.9685C266.896 40.9685 267.858 40.7792 268.757 40.4006C269.656 40.0221 270.445 39.5016 271.091 38.8233ZM297.874 25.0063C296.754 25.9369 296.06 27.2303 295.76 28.918H308.82C308.442 27.3249 307.669 26.0315 306.486 25.0694C305.303 24.1073 303.962 23.6183 302.196 23.6183C300.429 23.6183 298.994 24.0757 297.874 25.0063Z" fill="white"/>
</svg>
