<svg width="345" height="53" viewBox="0 0 345 53" fill="none" xmlns="http://www.w3.org/2000/svg">
<path fill-rule="evenodd" clip-rule="evenodd" d="M0 9.05322C0 4.05322 4.05328 0 9.05328 0H92.9468C97.9467 0 102 4.05322 102 9.05322V43.4556C102 48.4556 97.9467 52.5088 92.9468 52.5088H9.05328C4.05328 52.5088 0 48.4556 0 43.4556V9.05322ZM65.8344 22.6943C64.7975 22.5518 63.847 23.8325 63.7067 24.8833L63.6901 25.0068C63.5494 26.0474 63.3629 27.4272 64.3547 27.2588C70.3165 26.2466 83.5793 29.8809 83.6711 32.9512C83.7953 37.1548 71.0131 41.3257 49.92 41.3257C28.8268 41.3257 21.029 35.7207 21.029 32.9512C21.029 30.1816 27.8818 26.7227 44.2336 25.7646C44.239 25.7646 44.2498 25.7646 44.2498 25.7754L44.2501 25.8218C44.2539 26.3291 44.283 30.1899 43.4128 33.6025C43.348 33.8652 43.7746 34.4292 44.3848 34.6313C44.9356 34.8179 45.6215 34.8667 46.1398 34.8667C47.1821 34.8667 48.2297 34.5386 48.0299 33.4985C47.8855 32.7485 47.9377 31.0884 48.0008 29.0874C48.1074 25.7017 48.2447 21.3408 47.5115 18.7642C47.1929 17.6475 46.264 16.8213 45.13 16.6514C43.5099 16.4106 41.3445 15.8906 39.8918 15.0586C39.2168 14.6758 39.233 13.6792 39.9026 13.291C41.5929 12.3057 45.3947 10.5215 51.54 10.5215C58.4091 10.5215 62.4268 12.481 63.7931 13.4111C64.2575 13.7285 64.2791 14.4238 63.8201 14.8345C62.8643 15.688 60.1317 16.832 55.6442 17.3687C54.6884 17.4834 53.9755 18.5947 53.9755 19.5688C54.1105 20.877 54.0025 26.2573 53.7055 28.4028C53.5435 29.5688 54.8558 29.9023 55.7792 29.9463C56.8646 29.9956 58.0311 29.6182 58.0311 28.5342L57.8312 27.4175C57.7827 27.144 57.7557 26.8647 57.7557 26.5913V20.4116C57.7557 20.4116 57.761 20.3955 57.7719 20.3955C66.4932 18.9775 67.476 15.5513 67.476 14.0845C67.476 9.38281 58.9383 7.24268 51.0054 7.24268C43.0726 7.24268 34.5349 9.38281 34.5349 14.0845C34.5349 15.5566 35.5177 18.9775 44.239 20.3955C44.2498 20.3955 44.2552 20.4062 44.2552 20.4116V21.9116C44.2552 21.9116 44.2533 21.917 44.2496 21.9214C44.2469 21.9248 44.2435 21.9277 44.239 21.9277C29.4371 22.7817 15.0888 26.6074 15.0888 33.4985C15.0888 41.2217 33.1524 45.2666 51 45.2666C68.8477 45.2666 86.9113 41.2217 86.9113 33.4985C86.9113 26.3667 72.1741 23.5698 65.8344 22.6997V22.6943ZM330.492 17.4355V22.0884L330.58 21.9751C331.638 20.6118 336.195 14.7383 344.625 18.3027L344.388 28.3818C333.41 23.0347 330.492 33.5078 330.492 39.7065V49.8013H319.073V35.5425H295.445C295.445 40.4639 297.763 42.9243 302.385 42.9243C304.861 42.9243 306.738 41.915 308 39.896H319.041C316.817 47.2935 311.233 51 302.322 51C299.593 51 297.085 50.5898 294.814 49.7695C292.543 48.9497 290.603 47.7822 288.978 46.2681C287.353 44.7539 286.107 42.9399 285.224 40.8423C284.909 40.0693 284.672 39.2651 284.467 38.4448L284.372 49.8013H272.89V46.2051C270.445 49.2808 267.148 50.8105 262.984 50.8105C260.634 50.8105 258.457 50.3691 256.486 49.4858C254.514 48.6025 252.779 47.3882 251.312 45.8267C249.845 44.2651 248.694 42.4355 247.874 40.3374C247.653 39.7383 247.464 39.123 247.29 38.5078L247.196 49.8013H235.713V46.2051C233.268 49.2808 229.972 50.8105 225.808 50.8105C223.457 50.8105 221.281 50.3691 219.309 49.4858C217.338 48.6025 215.603 47.3882 214.136 45.8267C212.669 44.2651 211.517 42.4355 210.697 40.3374C210.413 39.5962 210.192 38.8394 210.003 38.0503V49.8013H198.521V46.2051C196.076 49.2808 192.779 50.8105 188.615 50.8105C186.265 50.8105 184.088 50.3848 182.117 49.5176C180.145 48.6499 178.41 47.4512 176.943 45.8896C175.476 44.3281 174.325 42.4985 173.505 40.4004C173.189 39.5962 172.953 38.7603 172.763 37.9087V49.8013H161.344V33.8394C161.344 32.1987 161.233 30.8579 160.997 29.8013C160.76 28.7446 160.429 27.9243 159.987 27.3408C159.546 26.7573 159.025 26.3472 158.442 26.1421C157.858 25.937 157.227 25.8267 156.549 25.8267C152.89 25.8267 151.06 28.4922 151.06 33.8394V49.8013H139.64V33.8394C139.64 32.1987 139.53 30.8423 139.325 29.7695C139.12 28.6973 138.804 27.8452 138.41 27.2144C138.016 26.5835 137.495 26.1577 136.864 25.9209C136.233 25.6846 135.492 25.5742 134.656 25.5742C133.946 25.5742 133.268 25.6846 132.637 25.8896C132.006 26.0947 131.454 26.5049 130.965 27.1201C130.476 27.7349 130.098 28.5708 129.83 29.6436C129.562 30.7163 129.42 32.1201 129.42 33.8394V49.8013H118V17.4355H129.42V21.4102C132.527 18.4292 136.028 16.9307 139.893 16.9307C144.688 16.9307 148.347 18.9497 150.871 22.9873C153.442 18.9023 157.101 16.8677 161.849 16.8677C163.363 16.8677 164.798 17.0884 166.139 17.5298C167.479 17.9717 168.647 18.6655 169.609 19.6118C170.571 20.5586 171.344 21.7886 171.912 23.3027C172.479 24.8169 172.763 26.6465 172.763 28.792V29.3125C172.953 28.5078 173.174 27.7036 173.473 26.9307C174.278 24.8486 175.382 23.0347 176.817 21.4731C178.252 19.9116 179.956 18.6812 181.927 17.7822C183.899 16.8833 186.091 16.4258 188.489 16.4258C192.527 16.4258 195.871 17.8296 198.521 20.6528V17.4355H210.003V29.0601C210.177 28.3345 210.382 27.6245 210.634 26.9307C211.407 24.8486 212.511 23.0347 213.946 21.4731C215.382 19.9116 217.085 18.6812 219.088 17.7822C221.091 16.8833 223.284 16.4258 225.681 16.4258C229.719 16.4258 233.063 17.8296 235.713 20.6528L236.091 1H247.574L247.369 28.3188C247.495 27.8452 247.637 27.3882 247.811 26.9307C248.584 24.8486 249.688 23.0347 251.123 21.4731C252.558 19.9116 254.262 18.6812 256.265 17.7822C258.268 16.8833 260.461 16.4258 262.858 16.4258C266.896 16.4258 270.24 17.8296 272.89 20.6528L273.268 1H284.751L284.53 28.4922C284.719 27.7983 284.909 27.1357 285.161 26.4888C285.997 24.3281 287.196 22.4824 288.757 20.9683C290.319 19.4541 292.196 18.2871 294.404 17.4668C296.612 16.6465 299.151 16.2368 301.88 16.2368C304.609 16.2368 307.069 16.6465 309.262 17.4668C311.454 18.2871 313.3 19.4702 314.814 21.0317C316.328 22.5933 317.479 24.4858 318.284 26.7412C318.631 27.6875 318.883 28.7129 319.073 29.7695V17.4355H330.492ZM196.722 38.8232C197.369 38.145 197.905 37.3721 198.3 36.4888C198.694 35.6055 198.899 34.6592 198.899 33.6499C198.899 32.6401 198.694 31.6782 198.3 30.7793C197.905 29.8799 197.369 29.0913 196.722 28.4131C196.076 27.7349 195.287 27.2144 194.388 26.8359C193.489 26.4575 192.574 26.2681 191.517 26.2681C190.461 26.2681 189.483 26.4575 188.584 26.8359C187.685 27.2144 186.896 27.7349 186.249 28.4131C185.603 29.0913 185.082 29.8486 184.703 30.7163C184.325 31.5835 184.136 32.4668 184.136 33.5234C184.136 34.5806 184.325 35.5586 184.703 36.4575C185.082 37.3564 185.603 38.145 186.249 38.8232C186.896 39.5015 187.685 40.022 188.584 40.4004C189.483 40.7793 190.508 40.9683 191.517 40.9683C192.527 40.9683 193.489 40.7793 194.388 40.4004C195.287 40.022 196.076 39.5015 196.722 38.8232ZM233.915 38.8232C234.562 38.145 235.098 37.3721 235.492 36.4888C235.886 35.6055 236.091 34.6592 236.091 33.6499C236.091 32.6401 235.886 31.6782 235.492 30.7793C235.098 29.8799 234.562 29.0913 233.915 28.4131C233.268 27.7349 232.479 27.2144 231.58 26.8359C230.681 26.4575 229.719 26.2681 228.71 26.2681C227.7 26.2681 226.738 26.4575 225.839 26.8359C224.94 27.2144 224.151 27.7349 223.505 28.4131C222.858 29.0913 222.322 29.8486 221.927 30.7163C221.533 31.5835 221.328 32.4668 221.328 33.5234C221.328 34.5806 221.517 35.5586 221.896 36.4575C222.274 37.3564 222.795 38.145 223.442 38.8232C224.088 39.5015 224.877 40.022 225.776 40.4004C226.675 40.7793 227.7 40.9683 228.71 40.9683C229.719 40.9683 230.681 40.7793 231.58 40.4004C232.479 40.022 233.268 39.5015 233.915 38.8232ZM271.091 38.8232C271.738 38.145 272.274 37.3721 272.669 36.4888C273.063 35.6055 273.268 34.6592 273.268 33.6499C273.268 32.6401 273.063 31.6782 272.669 30.7793C272.274 29.8799 271.738 29.0913 271.091 28.4131C270.445 27.7349 269.656 27.2144 268.757 26.8359C267.858 26.4575 266.896 26.2681 265.886 26.2681C264.877 26.2681 263.915 26.4575 263.016 26.8359C262.117 27.2144 261.328 27.7349 260.681 28.4131C260.035 29.0913 259.498 29.8486 259.104 30.7163C258.71 31.5835 258.505 32.4668 258.505 33.5234C258.505 34.5806 258.694 35.5586 259.073 36.4575C259.451 37.3564 259.972 38.145 260.618 38.8232C261.265 39.5015 262.054 40.022 262.953 40.4004C263.852 40.7793 264.877 40.9683 265.886 40.9683C266.896 40.9683 267.858 40.7793 268.757 40.4004C269.656 40.022 270.445 39.5015 271.091 38.8232ZM297.874 25.0063C296.754 25.937 296.06 27.2305 295.76 28.918H308.82C308.442 27.3247 307.669 26.0317 306.486 25.0693C305.303 24.1074 303.962 23.6182 302.196 23.6182C300.429 23.6182 298.994 24.0757 297.874 25.0063Z" fill="#BB3D3D"/>
</svg>
